<svg xmlns="http://www.w3.org/2000/svg" width="1600" height="1600" viewBox="0 0 423.333 423.333"><g style="display:inline"><path d="M.184.092h26.458V26.55H.184z" style="opacity:1;fill:#6dc4b8;fill-opacity:1;stroke-width:.0598854;stroke-dasharray:none" transform="matrix(2 0 0 2 -.367 -.184)"/><path d="M26.642.092H53.1V26.55H26.642z" style="fill:#119481;fill-opacity:1;stroke-width:.0598854;stroke-dasharray:none" transform="matrix(2 0 0 2 -.367 -.184)"/><g style="display:inline"><path d="M.184.092h26.458V26.55H.184z" style="opacity:1;fill:#6dc4b8;fill-opacity:1;stroke-width:.0598854;stroke-dasharray:none" transform="matrix(-2 0 0 2 106.2 52.733)"/><path d="M26.642.092H53.1V26.55H26.642z" style="fill:#119481;fill-opacity:1;stroke-width:.0598854;stroke-dasharray:none" transform="matrix(-2 0 0 2 106.2 52.733)"/></g><g style="display:inline"><path d="M.184.092h26.458V26.55H.184z" style="opacity:1;fill:#6dc4b8;fill-opacity:1;stroke-width:.0598854;stroke-dasharray:none" transform="matrix(2 0 0 2 105.466 -.184)"/><path d="M26.642.092H53.1V26.55H26.642z" style="fill:#119481;fill-opacity:1;stroke-width:.0598854;stroke-dasharray:none" transform="matrix(2 0 0 2 105.466 -.184)"/><g style="display:inline"><path d="M.184.092h26.458V26.55H.184z" style="opacity:1;fill:#6dc4b8;fill-opacity:1;stroke-width:.0598854;stroke-dasharray:none" transform="matrix(-2 0 0 2 212.034 52.733)"/><path d="M26.642.092H53.1V26.55H26.642z" style="fill:#119481;fill-opacity:1;stroke-width:.0598854;stroke-dasharray:none" transform="matrix(-2 0 0 2 212.034 52.733)"/></g></g><g style="display:inline"><path d="M.184.092h26.458V26.55H.184z" style="opacity:1;fill:#6dc4b8;fill-opacity:1;stroke-width:.0598854;stroke-dasharray:none" transform="matrix(2 0 0 2 -.367 105.65)"/><path d="M26.642.092H53.1V26.55H26.642z" style="fill:#119481;fill-opacity:1;stroke-width:.0598854;stroke-dasharray:none" transform="matrix(2 0 0 2 -.367 105.65)"/><g style="display:inline"><path d="M.184.092h26.458V26.55H.184z" style="opacity:1;fill:#6dc4b8;fill-opacity:1;stroke-width:.0598854;stroke-dasharray:none" transform="matrix(-2 0 0 2 106.2 158.566)"/><path d="M26.642.092H53.1V26.55H26.642z" style="fill:#119481;fill-opacity:1;stroke-width:.0598854;stroke-dasharray:none" transform="matrix(-2 0 0 2 106.2 158.566)"/></g><g style="display:inline"><path d="M.184.092h26.458V26.55H.184z" style="opacity:1;fill:#6dc4b8;fill-opacity:1;stroke-width:.0598854;stroke-dasharray:none" transform="matrix(2 0 0 2 105.466 105.65)"/><path d="M26.642.092H53.1V26.55H26.642z" style="fill:#119481;fill-opacity:1;stroke-width:.0598854;stroke-dasharray:none" transform="matrix(2 0 0 2 105.466 105.65)"/><g style="display:inline"><path d="M.184.092h26.458V26.55H.184z" style="opacity:1;fill:#6dc4b8;fill-opacity:1;stroke-width:.0598854;stroke-dasharray:none" transform="matrix(-2 0 0 2 212.034 158.566)"/><path d="M26.642.092H53.1V26.55H26.642z" style="fill:#119481;fill-opacity:1;stroke-width:.0598854;stroke-dasharray:none" transform="matrix(-2 0 0 2 212.034 158.566)"/></g></g></g><g style="display:inline"><path d="M.184.092h26.458V26.55H.184z" style="opacity:1;fill:#6dc4b8;fill-opacity:1;stroke-width:.0598854;stroke-dasharray:none" transform="matrix(2 0 0 2 211.3 -.184)"/><path d="M26.642.092H53.1V26.55H26.642z" style="fill:#119481;fill-opacity:1;stroke-width:.0598854;stroke-dasharray:none" transform="matrix(2 0 0 2 211.3 -.184)"/><g style="display:inline"><path d="M.184.092h26.458V26.55H.184z" style="opacity:1;fill:#6dc4b8;fill-opacity:1;stroke-width:.0598854;stroke-dasharray:none" transform="matrix(-2 0 0 2 317.867 52.733)"/><path d="M26.642.092H53.1V26.55H26.642z" style="fill:#119481;fill-opacity:1;stroke-width:.0598854;stroke-dasharray:none" transform="matrix(-2 0 0 2 317.867 52.733)"/></g><g style="display:inline"><path d="M.184.092h26.458V26.55H.184z" style="opacity:1;fill:#6dc4b8;fill-opacity:1;stroke-width:.0598854;stroke-dasharray:none" transform="matrix(2 0 0 2 317.133 -.184)"/><path d="M26.642.092H53.1V26.55H26.642z" style="fill:#119481;fill-opacity:1;stroke-width:.0598854;stroke-dasharray:none" transform="matrix(2 0 0 2 317.133 -.184)"/><g style="display:inline"><path d="M.184.092h26.458V26.55H.184z" style="opacity:1;fill:#6dc4b8;fill-opacity:1;stroke-width:.0598854;stroke-dasharray:none" transform="matrix(-2 0 0 2 423.7 52.733)"/><path d="M26.642.092H53.1V26.55H26.642z" style="fill:#119481;fill-opacity:1;stroke-width:.0598854;stroke-dasharray:none" transform="matrix(-2 0 0 2 423.7 52.733)"/></g></g><g style="display:inline"><path d="M.184.092h26.458V26.55H.184z" style="opacity:1;fill:#6dc4b8;fill-opacity:1;stroke-width:.0598854;stroke-dasharray:none" transform="matrix(2 0 0 2 211.3 105.65)"/><path d="M26.642.092H53.1V26.55H26.642z" style="fill:#119481;fill-opacity:1;stroke-width:.0598854;stroke-dasharray:none" transform="matrix(2 0 0 2 211.3 105.65)"/><g style="display:inline"><path d="M.184.092h26.458V26.55H.184z" style="opacity:1;fill:#6dc4b8;fill-opacity:1;stroke-width:.0598854;stroke-dasharray:none" transform="matrix(-2 0 0 2 317.867 158.566)"/><path d="M26.642.092H53.1V26.55H26.642z" style="fill:#119481;fill-opacity:1;stroke-width:.0598854;stroke-dasharray:none" transform="matrix(-2 0 0 2 317.867 158.566)"/></g><g style="display:inline"><path d="M.184.092h26.458V26.55H.184z" style="opacity:1;fill:#6dc4b8;fill-opacity:1;stroke-width:.0598854;stroke-dasharray:none" transform="matrix(2 0 0 2 317.133 105.65)"/><path d="M26.642.092H53.1V26.55H26.642z" style="fill:#119481;fill-opacity:1;stroke-width:.0598854;stroke-dasharray:none" transform="matrix(2 0 0 2 317.133 105.65)"/><g style="display:inline"><path d="M.184.092h26.458V26.55H.184z" style="opacity:1;fill:#6dc4b8;fill-opacity:1;stroke-width:.0598854;stroke-dasharray:none" transform="matrix(-2 0 0 2 423.7 158.566)"/><path d="M26.642.092H53.1V26.55H26.642z" style="fill:#119481;fill-opacity:1;stroke-width:.0598854;stroke-dasharray:none" transform="matrix(-2 0 0 2 423.7 158.566)"/></g></g></g></g><g style="display:inline"><path d="M.184.092h26.458V26.55H.184z" style="opacity:1;fill:#6dc4b8;fill-opacity:1;stroke-width:.0598854;stroke-dasharray:none" transform="matrix(2 0 0 2 -.367 211.483)"/><path d="M26.642.092H53.1V26.55H26.642z" style="fill:#119481;fill-opacity:1;stroke-width:.0598854;stroke-dasharray:none" transform="matrix(2 0 0 2 -.367 211.483)"/><g style="display:inline"><path d="M.184.092h26.458V26.55H.184z" style="opacity:1;fill:#6dc4b8;fill-opacity:1;stroke-width:.0598854;stroke-dasharray:none" transform="matrix(-2 0 0 2 106.2 264.4)"/><path d="M26.642.092H53.1V26.55H26.642z" style="fill:#119481;fill-opacity:1;stroke-width:.0598854;stroke-dasharray:none" transform="matrix(-2 0 0 2 106.2 264.4)"/></g><g style="display:inline"><path d="M.184.092h26.458V26.55H.184z" style="opacity:1;fill:#6dc4b8;fill-opacity:1;stroke-width:.0598854;stroke-dasharray:none" transform="matrix(2 0 0 2 105.466 211.483)"/><path d="M26.642.092H53.1V26.55H26.642z" style="fill:#119481;fill-opacity:1;stroke-width:.0598854;stroke-dasharray:none" transform="matrix(2 0 0 2 105.466 211.483)"/><g style="display:inline"><path d="M.184.092h26.458V26.55H.184z" style="opacity:1;fill:#6dc4b8;fill-opacity:1;stroke-width:.0598854;stroke-dasharray:none" transform="matrix(-2 0 0 2 212.034 264.4)"/><path d="M26.642.092H53.1V26.55H26.642z" style="fill:#119481;fill-opacity:1;stroke-width:.0598854;stroke-dasharray:none" transform="matrix(-2 0 0 2 212.034 264.4)"/></g></g><g style="display:inline"><path d="M.184.092h26.458V26.55H.184z" style="opacity:1;fill:#6dc4b8;fill-opacity:1;stroke-width:.0598854;stroke-dasharray:none" transform="matrix(2 0 0 2 -.367 317.316)"/><path d="M26.642.092H53.1V26.55H26.642z" style="fill:#119481;fill-opacity:1;stroke-width:.0598854;stroke-dasharray:none" transform="matrix(2 0 0 2 -.367 317.316)"/><g style="display:inline"><path d="M.184.092h26.458V26.55H.184z" style="opacity:1;fill:#6dc4b8;fill-opacity:1;stroke-width:.0598854;stroke-dasharray:none" transform="matrix(-2 0 0 2 106.2 370.233)"/><path d="M26.642.092H53.1V26.55H26.642z" style="fill:#119481;fill-opacity:1;stroke-width:.0598854;stroke-dasharray:none" transform="matrix(-2 0 0 2 106.2 370.233)"/></g><g style="display:inline"><path d="M.184.092h26.458V26.55H.184z" style="opacity:1;fill:#6dc4b8;fill-opacity:1;stroke-width:.0598854;stroke-dasharray:none" transform="matrix(2 0 0 2 105.466 317.316)"/><path d="M26.642.092H53.1V26.55H26.642z" style="fill:#119481;fill-opacity:1;stroke-width:.0598854;stroke-dasharray:none" transform="matrix(2 0 0 2 105.466 317.316)"/><g style="display:inline"><path d="M.184.092h26.458V26.55H.184z" style="opacity:1;fill:#6dc4b8;fill-opacity:1;stroke-width:.0598854;stroke-dasharray:none" transform="matrix(-2 0 0 2 212.034 370.233)"/><path d="M26.642.092H53.1V26.55H26.642z" style="fill:#119481;fill-opacity:1;stroke-width:.0598854;stroke-dasharray:none" transform="matrix(-2 0 0 2 212.034 370.233)"/></g></g></g><g style="display:inline"><path d="M.184.092h26.458V26.55H.184z" style="opacity:1;fill:#6dc4b8;fill-opacity:1;stroke-width:.0598854;stroke-dasharray:none" transform="matrix(2 0 0 2 211.3 211.483)"/><path d="M26.642.092H53.1V26.55H26.642z" style="fill:#119481;fill-opacity:1;stroke-width:.0598854;stroke-dasharray:none" transform="matrix(2 0 0 2 211.3 211.483)"/><g style="display:inline"><path d="M.184.092h26.458V26.55H.184z" style="opacity:1;fill:#6dc4b8;fill-opacity:1;stroke-width:.0598854;stroke-dasharray:none" transform="matrix(-2 0 0 2 317.867 264.4)"/><path d="M26.642.092H53.1V26.55H26.642z" style="fill:#119481;fill-opacity:1;stroke-width:.0598854;stroke-dasharray:none" transform="matrix(-2 0 0 2 317.867 264.4)"/></g><g style="display:inline"><path d="M.184.092h26.458V26.55H.184z" style="opacity:1;fill:#6dc4b8;fill-opacity:1;stroke-width:.0598854;stroke-dasharray:none" transform="matrix(2 0 0 2 317.133 211.483)"/><path d="M26.642.092H53.1V26.55H26.642z" style="fill:#119481;fill-opacity:1;stroke-width:.0598854;stroke-dasharray:none" transform="matrix(2 0 0 2 317.133 211.483)"/><g style="display:inline"><path d="M.184.092h26.458V26.55H.184z" style="opacity:1;fill:#6dc4b8;fill-opacity:1;stroke-width:.0598854;stroke-dasharray:none" transform="matrix(-2 0 0 2 423.7 264.4)"/><path d="M26.642.092H53.1V26.55H26.642z" style="fill:#119481;fill-opacity:1;stroke-width:.0598854;stroke-dasharray:none" transform="matrix(-2 0 0 2 423.7 264.4)"/></g></g><g style="display:inline"><path d="M.184.092h26.458V26.55H.184z" style="opacity:1;fill:#6dc4b8;fill-opacity:1;stroke-width:.0598854;stroke-dasharray:none" transform="matrix(2 0 0 2 211.3 317.316)"/><path d="M26.642.092H53.1V26.55H26.642z" style="fill:#119481;fill-opacity:1;stroke-width:.0598854;stroke-dasharray:none" transform="matrix(2 0 0 2 211.3 317.316)"/><g style="display:inline"><path d="M.184.092h26.458V26.55H.184z" style="opacity:1;fill:#6dc4b8;fill-opacity:1;stroke-width:.0598854;stroke-dasharray:none" transform="matrix(-2 0 0 2 317.867 370.233)"/><path d="M26.642.092H53.1V26.55H26.642z" style="fill:#119481;fill-opacity:1;stroke-width:.0598854;stroke-dasharray:none" transform="matrix(-2 0 0 2 317.867 370.233)"/></g><g style="display:inline"><path d="M.184.092h26.458V26.55H.184z" style="opacity:1;fill:#6dc4b8;fill-opacity:1;stroke-width:.0598854;stroke-dasharray:none" transform="matrix(2 0 0 2 317.133 317.316)"/><path d="M26.642.092H53.1V26.55H26.642z" style="fill:#119481;fill-opacity:1;stroke-width:.0598854;stroke-dasharray:none" transform="matrix(2 0 0 2 317.133 317.316)"/><g style="display:inline"><path d="M.184.092h26.458V26.55H.184z" style="opacity:1;fill:#6dc4b8;fill-opacity:1;stroke-width:.0598854;stroke-dasharray:none" transform="matrix(-2 0 0 2 423.7 370.233)"/><path d="M26.642.092H53.1V26.55H26.642z" style="fill:#119481;fill-opacity:1;stroke-width:.0598854;stroke-dasharray:none" transform="matrix(-2 0 0 2 423.7 370.233)"/></g></g></g></g></g></g></svg>